<?xml version="1.0" encoding="utf-8"?>
<!-- Generator: Adobe Illustrator 26.0.3, SVG Export Plug-In . SVG Version: 6.00 Build 0)  -->
<svg version="1.1" id="Layer_1" xmlns="http://www.w3.org/2000/svg" xmlns:xlink="http://www.w3.org/1999/xlink" x="0px" y="0px"
	 viewBox="0 0 150 150" style="enable-background:new 0 0 150 150;" xml:space="preserve">
<style type="text/css">
	.st0{clip-path:url(#SVGID_00000032616037984982343000000001256915530385043363_);fill:#080504;}
</style>
<g>
	<defs>
		<rect id="SVGID_1_" x="27.7" width="94.6" height="150"/>
	</defs>
	<clipPath id="SVGID_00000169522470050056658250000001243526936148067258_">
		<use xlink:href="#SVGID_1_"  style="overflow:visible;"/>
	</clipPath>
	<path style="clip-path:url(#SVGID_00000169522470050056658250000001243526936148067258_);fill:#080504;" d="M96.9,85.6
		c-0.1,1.3-0.6,2.6-0.3,3.8c1.8,8.2,3.8,16.4,5.8,24.6c0.1,0.5,0.6,1,1,1.2c2.7,1,5.4,1.9,8.2,2.9c1.5,0.5,3.1,1,4.6,1.5
		c-0.1-0.3-0.3-0.5-0.5-0.6c-3.4-1.9-6.9-3.7-10.3-5.6c-0.5-0.3-1-0.7-1.1-1.2c-2-7.7-3.9-15.4-5.8-23.2c-0.4-1.5-0.7-3-1.1-4.4
		c-0.1,0-0.1,0-0.2,0C97.1,84.9,97,85.3,96.9,85.6 M90.1,88.6h5.6c0.3-1.6,0.6-3.1,0.9-4.6H89C89.4,85.6,89.7,87.1,90.1,88.6
		 M83,59.4c5.7-2.9,11.5-5.9,17.6-9c-1.9-0.6-3.5-1.3-5.1-1.6c-0.7-0.2-1.8,0.1-2.4,0.6c-2.8,1.9-5.4,4-8.1,6
		C83.6,56.3,82.1,57.2,83,59.4 M99.4,48.4c1.6-3.2,3.3-6.4,5-9.5c0.3-0.6,0.4-1.2,0.5-1.9c0.2-1.7,0.4-3.3,0.6-5
		c0.2-2,0.5-4,0.7-6.1c-0.1,0-0.2-0.1-0.3-0.1c-0.7,0.9-1.5,1.8-2.2,2.7c-1.4,1.9-3,3.7-3.5,6.1c-1,4.4-2,8.7-3,13.1
		c-0.1,0.3,0.2,1,0.5,1.1C98.2,48.8,98.9,49.4,99.4,48.4 M67.9,57.6c0.1,0.9-0.1,2,0.3,2.5c0.4,0.5,1.6,0.4,2.4,0.6
		c0.3,0.1,0.5,0.2,0.8,0.2c3.6-0.2,7.3-0.3,10.9-0.5c0.1-2.1,0.2-3.8,0.3-5.7c-4.9,2.8-9.7,2.8-14.7,0.4
		C67.9,56,67.8,56.8,67.9,57.6 M82.3,61.7c-4.8,0.1-9.4,0.2-14.2,0.4v4.6c4,1,9.6,0.6,14.2-0.3V61.7z M83.2,72.7
		c-0.3-1.7-0.5-3.3-0.8-5c-4.8,0.7-9.6,1.1-14.4,0.3c-0.3,1.6-0.6,3.2-1,4.9C72.4,74.2,77.8,73.6,83.2,72.7 M54.8,48.8
		c-1.7,0.4-3.3,1-5.3,1.6c6.1,3.1,11.9,6.1,17.9,9.1c-0.1-1.2,0.4-2.3-0.7-3.1c-3.2-2.4-6.4-4.9-9.7-7.2
		C56.4,48.8,55.5,48.6,54.8,48.8 M53.1,48.3c-0.7-3.2-1.6-6.4-2.1-9.7c-0.8-5.2-3.4-9.3-7.1-13c0.3,3,0.5,5.9,0.9,8.8
		c0.2,1.8,0.2,3.6,1.2,5.2c1.5,2.6,2.8,5.3,4.2,8C51.2,49.2,51.4,49.3,53.1,48.3 M59.1,96.1c-0.1,0.6,0,0.9,0.7,1.1
		c1.3,0.2,2.7,0.6,4,0.8c2.8,0.4,5.6,0.8,8.4,1c4.5,0.3,8.9-0.5,13.3-1.2c1.9-0.3,3.9-0.8,5.8-1.2c-0.4-1.7-0.7-3.2-1-4.9
		c-2.9,0.5-5.7,1.1-8.4,1.5c-2.8,0.4-5.7,0.9-8.4,0.7c-4.2-0.3-8.4-1.1-12.6-1.7c-0.6-0.1-1,0-1.1,0.8
		C59.6,94.1,59.4,95.1,59.1,96.1 M58.8,98.1c-0.2,1.7-0.5,3.2-0.6,4.8c0,0.2,0.4,0.5,0.6,0.5c1.3,0.3,2.6,0.6,4,0.9
		c4.9,0.9,9.9,1.8,14.9,1c4.5-0.7,9.1-1.4,13.6-2.2c0.3,0,0.7-0.6,0.7-0.9c-0.1-1.4-0.3-2.8-0.5-4.3
		C80.6,100.6,69.8,101.4,58.8,98.1 M61.6,86c-0.5,1.8-0.9,3.4-1.3,5c0.8,0.2,1.5,0.3,2.2,0.4c3.4,0.4,6.8,1,10.2,1.3
		c5.6,0.4,11.1-0.9,16.6-1.9c0.2,0,0.6-0.6,0.5-0.8c-0.3-1.4-0.8-2.7-1.2-4.3C79.6,87.8,70.6,88.4,61.6,86 M85.4,79.9
		c-3.7,0.5-7.4,1.2-11.1,1.3c-3.5,0.1-7.1-0.6-10.8-0.9c-0.5,1.4-1,2.9-1.6,4.5c8.8,2.4,17.5,1.7,26.3-0.3c-0.5-1.3-1-2.5-1.3-3.7
		C86.7,79.8,86.2,79.8,85.4,79.9 M86.2,78.5c-0.6-1.3-1.2-2.6-1.7-3.9c-0.3-0.7-0.8-0.8-1.4-0.7c-1.1,0.2-2.2,0.3-3.4,0.5
		c-4.3,0.7-8.5,0.6-12.8-0.2c-0.3,0-0.8,0.2-0.9,0.4c-0.7,1.4-1.2,2.7-1.9,4.2C71.5,80.7,78.8,80.1,86.2,78.5 M64.9,72.9
		c0.3,0,0.7-0.2,0.8-0.4c0.3-1.3,0.6-2.7,0.8-4.1H55.1v4.5C58.4,72.9,61.6,73,64.9,72.9 M84.6,72.8H95v-4.4H83.7
		C84,70,84.3,71.4,84.6,72.8 M65.4,137.8c0.8,1.5,1.5,2.9,2.3,4.2c1.7,2.6,3.2,5.3,5.7,7.2c1.4,1.1,2.6,1,3.9-0.2c1-1,2-1.9,2.8-3.1
		c1.8-2.6,3.4-5.4,5.1-8c-0.1-0.1-0.2-0.2-0.3-0.3C78.5,138.7,72,139.3,65.4,137.8 M75.3,132.3c-4.2,0.1-8.5-0.6-12.8-1
		c0.7,1.5,1.4,3.2,2.2,4.9c0.1,0.2,0.4,0.4,0.6,0.5c1.8,0.3,3.5,0.6,5.3,0.7c4.7,0.3,9.3-0.2,13.9-1c0.5-0.1,1.2-0.3,1.4-0.6
		c0.8-1.6,1.5-3.3,2.2-5C83.8,131.3,79.5,132.2,75.3,132.3 M60,123.9c0.7,2,1.2,3.7,1.8,5.4c0.1,0.2,0.6,0.4,0.9,0.5
		c1.7,0.3,3.4,0.7,5.1,0.9c2.3,0.3,4.6,0.7,6.8,0.5c4.2-0.3,8.5-1,12.7-1.6c0.5-0.1,1.2-0.2,1.4-0.5c0.7-1.6,1.2-3.3,1.8-5.4
		C80.2,126.1,70.3,126.9,60,123.9 M58.6,117.4c0.4,1.9,0.8,3.7,1.2,5.4c0.5,0.1,0.8,0.2,1.1,0.3c4.3,0.6,8.5,1.3,12.8,1.7
		c1.8,0.2,3.7-0.2,5.5-0.4c3.6-0.5,7.2-1.1,10.7-1.7c0.4-0.1,0.8-0.7,1-1.1c0.4-1.4,0.6-2.8,0.9-4.1c-5.6,0.7-11.1,1.7-16.6,2.1
		C69.6,119.9,64.2,118.5,58.6,117.4 M58,110.9c0.1,1.6,0.3,2.9,0.4,4.3c0,0.7,0.2,0.9,0.9,1.1c3.4,0.6,6.7,1.3,10.1,1.8
		c2.2,0.3,4.5,0.4,6.7,0.2c3.3-0.3,6.7-0.8,10-1.4c2-0.3,4-0.8,6-1.2c0.1-1.8,0.2-3.5,0.3-4.9c-5.8,0.8-11.5,1.7-17.2,2.2
		C69.4,113.6,63.7,112,58,110.9 M57.9,108.4c-0.1,0.9,0.2,1.3,1.1,1.4c0.9,0.1,1.8,0.4,2.7,0.6c3.7,0.5,7.3,1.4,11,1.4
		c4.2,0,8.4-0.6,12.5-1.1c2.4-0.3,4.7-0.9,7.1-1.4v-2.6V104c-11.5,3-22.8,3.9-34.2,0.3C58,105.9,58,107.2,57.9,108.4 M53.6,83.9
		c0.3,1.5,0.5,2.9,0.8,4.2c0,0.2,0.5,0.4,0.8,0.5c1.4,0,2.8,0,4.2,0c0.3,0,0.8-0.1,0.8-0.3c0.3-1.4,0.6-2.9,0.9-4.4H53.6z
		 M38.7,116.7c-1.8,1-3.5,1.9-5.3,2.9c4.5-1.3,8.8-2.8,13.2-4.3c0.8-0.3,1.1-0.7,1.3-1.4c1.8-7.7,3.6-15.5,5.5-23.2
		c0.5-2.2,0-4.2-0.6-6.5c-2.3,9.3-4.6,18.2-6.8,27.2c-0.2,1-0.6,1.7-1.5,2.1C42.5,114.6,40.6,115.6,38.7,116.7 M44.3,82.3
		c-0.6,0.8-1.4,1.8-2.3,2.3c-2.6,1.3-5.3,2.4-8,3.6c-2.1,0.9-4.1,1.8-6.3,2.8C27.9,91,28,91,28.1,91c4.5-0.9,9-1.7,13.5-2.6
		c0.9-0.2,1.8-0.3,2.4-1.2c3-4.4,6.1-8.9,9.2-13.3c1.1-1.5,1.2-3,1-4.8C50.9,73.5,47.6,77.9,44.3,82.3 M104.8,5.6
		c0.8-1.8,1.8-3.5,1.6-5.6c-0.9-0.2-1.4,0.1-1.8,1C101.6,8,98.7,15,93.6,20.7c-3,3.5-6,7.1-9,10.6c-0.9,1-1,1-1.9-0.2
		c2.1-2,2-5,0.5-6.9c-1.3-1.7-3.9-2.4-5.5-1.6c2.8,1.7,3.8,4.2,2.6,7c-0.8-2.8-2.5-4.6-5.5-4.6c-2.7,0-4.3,1.6-5.2,4.3
		c-0.7-1.5-0.6-2.8,0.1-4c0.7-1.1,1.7-2,2.5-2.9c-2.1-0.7-4,0.2-5.1,1.6c-2,2.4-1.5,4.8,0.1,7.1c-0.3,0.3-0.5,0.6-0.8,1
		c-0.2-0.3-0.4-0.5-0.6-0.7c-2.8-3.2-5.7-6.4-8.4-9.7c-2.1-2.6-4.1-5.3-5.7-8.2c-2.2-4-4-8.2-5.9-12.3c-0.4-0.9-0.8-1.5-2.2-1.2
		c3.7,13.4,12.1,23.7,21.4,33.4c-5,5.9-4.1,13.7,0.6,18.3c5.4,5.3,13.2,5.4,18.7,0.2c4.8-4.5,5.9-11.9,1.1-18.2
		c1.5-1.7,3.1-3.5,4.6-5.2c2.4-2.9,4.9-5.7,7.2-8.7C100.3,15.5,102.6,10.6,104.8,5.6 M122.3,91c-3.8-1.9-7.7-3.6-11.6-5.3
		c-1.2-0.5-2.6-0.8-3.4-1.7c-2.4-2.9-4.6-5.9-6.9-8.9c-1.5-2-3-4-4.7-6.2c-0.1,1.8-0.1,3.1,0.8,4.4c3,4.2,5.9,8.5,8.9,12.8
		c0.6,0.8,0.9,1.9,2.3,2.1c3.6,0.6,7.2,1.4,10.8,2.1C119.8,90.5,121,90.8,122.3,91"/>
</g>
</svg>
