<?xml version="1.0" encoding="utf-8"?>
<!-- Generator: Adobe Illustrator 26.0.3, SVG Export Plug-In . SVG Version: 6.00 Build 0)  -->
<svg version="1.1" id="Layer_1" xmlns="http://www.w3.org/2000/svg" xmlns:xlink="http://www.w3.org/1999/xlink" x="0px" y="0px"
	 viewBox="0 0 150 150" style="enable-background:new 0 0 150 150;" xml:space="preserve">
<style type="text/css">
	.st0{fill:#FFFFFF;}
</style>
<g>
	<path d="M136,22c-0.2-4.4-3.7-7.9-8.1-8.2c-6.1-0.4-14.8-1.1-22.3-2.5c-9.8-1.8-21.7-6.4-27.2-8.7c-1.9-0.8-4-0.8-6,0
		c-5.4,2.3-17.4,6.9-27.2,8.7c-7.5,1.4-16.3,2.1-22.3,2.5c-4.4,0.3-7.9,3.8-8.1,8.2c-0.7,16.4-1.2,54.8,9.2,77.2
		c16.6,35.6,41.2,46.3,48.9,48.8c1.5,0.5,3.2,0.5,4.8,0c7.7-2.5,32.3-13.2,48.9-48.8C137.2,76.8,136.8,38.5,136,22z"/>
</g>
<path class="st0" d="M111.1,88.6h-6.2c-1.5,0-2.7-1.2-2.7-2.7v-4.7h-6.2l-0.1,5.4c0,1.5-1.2,2.6-2.7,2.7L63.7,90
	c-1.2,0-2.1-0.9-2.1-2.1v-4.8h-5.7l0,4.9c0,1.2-1,2.1-2.1,2.1c-3.7,0-10.7-0.4-11.2-2.6c-0.4-2,1.7-4.8,1.7-4.8L39,82.2
	c0,0-3.6,3.6-1.5,8.3c2.5,5.4,19.9,4.4,19.9,4.4l56.7-1.7v-1.5C114.1,90,112.8,88.6,111.1,88.6z"/>
<path class="st0" d="M100.1,46.1c-0.7-3.7,0-12.6,0-12.6s-6-4.1-12.8-4.8c-1-0.1-2-0.1-2.9-0.1c-6,0-10.6,1.7-10.6,1.7
	s1.3,16.3,0,21.2c-1.3,4.9-19.9,17-25.1,17.5c-5.1,0.5-8.4,3-9.8,4.5C37.2,75.2,38,81,38,81l29.2,2.1l37.9-13.8c0,0,1.3-4.2,1-7.5
	C105.9,58.5,100.8,49.8,100.1,46.1z M103.5,67.8L66.9,81.2l-27.2-2c-0.1-2,0.1-3.9,0.5-4.3c1-1,3.9-3.4,8.7-3.9
	c5.7-0.6,25.2-13,26.7-18.9c1.1-4.3,0.5-16,0.2-20.3c1.7-0.5,4.9-1.2,8.6-1.2c0.9,0,1.9,0,2.8,0.1c4.8,0.5,9.2,2.8,11,3.9
	c-0.2,2.6-0.5,8.8,0.1,12c0.4,2,1.7,4.8,3.1,7.8c1.3,2.8,2.9,6.2,3,7.7C104.3,64,103.8,66.5,103.5,67.8z"/>
<path class="st0" d="M90.6,73.4c-1.4,0.5-21.8,8.7-23.5,8.9c-7,0.6-29.4-2.2-29.4-2.2v2c0,0,24.3,3.3,29.8,2
	c5.5-1.3,23.2-8.5,23.5-8c0.2,0.5,0.7,6.7,0.7,6.7s13.8-1.9,14.2-2.6c0.4-0.7,0-11.2,0-11.2S91.9,72.9,90.6,73.4z"/>
<path class="st0" d="M59.3,63c-0.4-0.4-1-0.4-1.4,0s-0.4,1,0,1.4l4.6,4.6c0.2,0.2,0.4,0.3,0.7,0.3c0.2,0,0.5-0.1,0.7-0.3
	c0.4-0.4,0.4-1,0-1.4L59.3,63z"/>
<path class="st0" d="M67.6,57.6c-0.4-0.4-1-0.4-1.4,0c-0.4,0.4-0.4,1,0,1.4l4.6,4.6c0.2,0.2,0.4,0.3,0.7,0.3c0.2,0,0.5-0.1,0.7-0.3
	c0.4-0.4,0.4-1,0-1.4L67.6,57.6z"/>
<path class="st0" d="M78.9,54.7l-6-2.6c-0.5-0.2-1.1,0-1.3,0.5c-0.2,0.5,0,1,0.5,1.3l6,2.6c0.1,0.1,0.3,0.1,0.4,0.1
	c0.4,0,0.7-0.2,0.9-0.6C79.6,55.4,79.3,54.9,78.9,54.7z"/>
<path class="st0" d="M80.2,44.2l-6.5-0.1c0,0,0,0,0,0c-0.5,0-1,0.4-1,0.9c0,0.5,0.4,1,0.9,1l6.5,0.1c0,0,0,0,0,0c0.5,0,1-0.4,1-0.9
	C81.1,44.6,80.7,44.2,80.2,44.2z"/>
<path class="st0" d="M80,36.9l-6.5-0.1c0,0,0,0,0,0c-0.5,0-1,0.4-1,0.9c0,0.5,0.4,1,0.9,1l6.5,0.1c0,0,0,0,0,0c0.5,0,1-0.4,1-0.9
	C81,37.3,80.6,36.9,80,36.9z"/>
</svg>
