<?xml version="1.0" encoding="utf-8"?>
<!-- Generator: Adobe Illustrator 26.0.3, SVG Export Plug-In . SVG Version: 6.00 Build 0)  -->
<svg version="1.1" id="Layer_1" xmlns="http://www.w3.org/2000/svg" xmlns:xlink="http://www.w3.org/1999/xlink" x="0px" y="0px"
	 viewBox="0 0 150 150" style="enable-background:new 0 0 150 150;" xml:space="preserve">
<style type="text/css">
	.st0{clip-path:url(#SVGID_00000080890584137331657230000005090013558103119769_);fill:#1C1C1A;}
</style>
<g>
	<defs>
		<rect id="SVGID_1_" x="2.6" y="1.9" width="144.8" height="146.2"/>
	</defs>
	<clipPath id="SVGID_00000131345983141212971590000001572414883187406732_">
		<use xlink:href="#SVGID_1_"  style="overflow:visible;"/>
	</clipPath>
	<path style="clip-path:url(#SVGID_00000131345983141212971590000001572414883187406732_);fill:#1C1C1A;" d="M65,101
		c0,0-4.4-6.8-10.9-2c-6.5,4.8-7.9,12.6-11.3,18.1c-3.4,5.5-14.6,3.8-7.5-4.1S52.7,95.9,46.9,89c-5.8-6.8-8.9-7.5-16.4-3.1
		c-7.5,4.4-16.4,12-24.9,5.5s2.7-16.1,13.8-13.7c11.1,2.4,23.4,1,25.8-7.2c2.4-8.2,1.4-13.3-9.2-18.8c-10.6-5.5-15-8.2-12-13.3
		s7-6,9.7-0.2c2.7,5.7,16.9,15.3,23.1,9.8C63,42.6,65,33.7,63,22.4c-2-11.3-3.6-20.2,2.4-20.5s10.7,3.4,8.4,9.2
		c-2.3,5.8-8.4,25.3,3.5,29.9s16.4,2.9,24.3-6c7.9-8.9,13.7-9.2,14.3-2.6s2.4,7.7-6.8,9.4c-9.2,1.7-18.4,10.6-14,22.5l-21.3,5.1v40
		C73.8,109.5,70.2,128.3,65,101"/>
	<path style="clip-path:url(#SVGID_00000131345983141212971590000001572414883187406732_);fill:#1C1C1A;" d="M32.3,24.5
		c4.4,0,7.9-3.5,7.9-7.9s-3.5-7.9-7.9-7.9s-7.9,3.5-7.9,7.9S27.9,24.5,32.3,24.5"/>
	<path style="clip-path:url(#SVGID_00000131345983141212971590000001572414883187406732_);fill:#1C1C1A;" d="M128.6,35.5
		c4.4,0,7.9-3.5,7.9-7.9c0-4.4-3.5-7.9-7.9-7.9c-4.4,0-7.9,3.5-7.9,7.9C120.7,31.9,124.3,35.5,128.6,35.5"/>
	<path style="clip-path:url(#SVGID_00000131345983141212971590000001572414883187406732_);fill:#1C1C1A;" d="M112.8,139.2V77.1
		l26.3,5.5C139.2,82.5,146,121.8,112.8,139.2 M146,74.3l-33.5-6.5l-33.8,7.3c-4.9,61.7,33.6,72.9,33.6,72.9
		C157.9,131.4,146,74.3,146,74.3"/>
	<path style="clip-path:url(#SVGID_00000131345983141212971590000001572414883187406732_);fill:#1C1C1A;" d="M70.7,124.2
		c0,0-7.3,2-7.7,13c-0.3,10.9,12.3,11,13,0C76.6,126.3,70.7,124.2,70.7,124.2"/>
</g>
</svg>
