<?xml version="1.0" encoding="utf-8"?>
<!-- Generator: Adobe Illustrator 26.0.3, SVG Export Plug-In . SVG Version: 6.00 Build 0)  -->
<svg version="1.1" id="Layer_1" xmlns="http://www.w3.org/2000/svg" xmlns:xlink="http://www.w3.org/1999/xlink" x="0px" y="0px"
	 viewBox="0 0 150 150" style="enable-background:new 0 0 150 150;" xml:space="preserve">
<g>
	<path d="M133.1,74.1c-1.9-12.4-8.2-27.7-15.8-35.5c2.3,11.9-17.6,21-25.6,38.3c0,0,1.9,3.6,5.4,4.8c8.6-15.5,16.6-17.6,21.9-27.4
		c3.3,5.8,5.8,13.1,7,21.1c1.9,11.9,0.7,23.4-3.3,32.5c-5.8,13.3-16.2,23.1-29.3,27.5c-13.9,4.7-29.6,3-43.2-4.6
		c-12-6.7-20.9-18.8-25.1-34c-3.6-13.2-2.2-33.7,12.2-51.7c1.5,7.9,6,14.6,10,20.4c9.1,13.3,19.1,27.5,8.6,47.8
		c-12.8-10.5-17.5-28.5-10.6-44.8c0,0-1-1.3-2.5-3.4c-1.6-2.1-2.7-4.8-2.7-4.8c-9,18.3-8.5,48.2,18.1,62c17.6-26.4,4.9-46.8-4.8-61
		c-6-8.8-10.4-16.2-8.8-24.9l2.1-11.1L38.2,33c-9.6,9.3-16.5,20.6-19.8,32.8C15.3,77,15.2,88.3,18,98.5
		c4.7,17.1,14.9,30.7,28.5,38.4c9.6,5.4,20.2,8.1,30.7,8.1c6.2,0,12.4-1,18.3-3c15.1-5.1,27-16.2,33.7-31.4
		C133.8,100.3,135.1,87.3,133.1,74.1z"/>
	<path d="M53.7,55.1c2.1-3.2,6.1-9.4,8.5-12.6c5.9-7.6,12-15.5,14.5-26.7c16,12.8,11.7,23.6,6.7,35.9c-3.9,9.7-8.4,20.7,0,31.5
		c5.3,6.9,11.8,8.5,16.3,8.7c2.6,0.1,5.2-0.3,7.6-1.1c-0.8,7.5-4.2,16.5-11.1,21.4c-2.6-3.9-3.8-11.2-2.8-18.3c0,0-1.9-0.4-3.6-1.1
		c-1.8-0.7-3.5-2.2-3.5-2.2c-2.4,10.9,0.9,24.5,8.5,31.1c6.2-3.2,13.6-10.5,16.7-18.1c2.5-6.1,3.7-13.1,3.2-19.1l-0.6-6.5l-5.2,4
		c-3.5,2.7-13,5.4-19.7-3.3c-5.6-7.2-3.2-13.9,1-24.4C95.6,40.8,103.3,21.8,72.6,5c-1.2,12.5-9.3,24.9-15.8,33.4
		c-2.4,3.1-5.1,6.1-7.3,9.5c0,0,0.4,1.6,1.7,3.7C52.3,53.7,53.7,55.1,53.7,55.1z"/>
</g>
</svg>
