<?xml version="1.0" encoding="utf-8"?>
<!-- Generator: Adobe Illustrator 26.0.3, SVG Export Plug-In . SVG Version: 6.00 Build 0)  -->
<svg version="1.1" id="Layer_1" xmlns="http://www.w3.org/2000/svg" xmlns:xlink="http://www.w3.org/1999/xlink" x="0px" y="0px"
	 viewBox="0 0 150 150" style="enable-background:new 0 0 150 150;" xml:space="preserve">
<style type="text/css">
	.st0{fill:#1C1C1A;}
</style>
<g>
	<path class="st0" d="M74.7,150l-1-0.7c-12-7.8-22.2-16.5-30.5-25.8c-8-9-14.5-19-19.2-29.6c-8.8-20-11.9-43.1-9.4-70.5l0.1-1.1
		L74.7,0l60,22.3l0.1,1.1c1.7,15.8,1.3,29.9-1,43.2c-0.2,1-1.1,1.7-2.1,1.5c-1-0.2-1.7-1.1-1.5-2.1c2.2-12.6,2.6-26.1,1.1-41.1
		l-56.6-21l-56.6,21C13.5,78.6,31.5,117,74.6,145.6c4.4-3,8.6-6.1,12.5-9.3c0.8-0.6,1.9-0.5,2.6,0.3c0.6,0.8,0.5,1.9-0.3,2.6
		c-4.3,3.5-8.9,6.9-13.8,10.2L74.7,150z"/>
</g>
<g>
	<g>
		<path class="st0" d="M116.2,69.4c0.2-0.1,0.4-0.2,0.6-0.5l4.6-6c0.5-0.6,0.4-1.5-0.3-2c-0.6-0.5-1.5-0.4-2,0.3l-4.6,6
			c-0.5,0.6-0.4,1.5,0.3,2C115.2,69.5,115.8,69.6,116.2,69.4z"/>
	</g>
	<g>
		<path class="st0" d="M99.9,57c0.4-0.2,0.8-0.6,0.9-1l1.2-6.2c0.1-0.8-0.4-1.5-1.1-1.7c-0.8-0.1-1.5,0.4-1.7,1.1L98,55.4
			c-0.1,0.8,0.4,1.5,1.1,1.7C99.4,57.1,99.7,57.1,99.9,57z"/>
	</g>
	<g>
		<path class="st0" d="M83.6,58.9c0.1,0,0.2-0.1,0.3-0.2c0.6-0.5,0.7-1.4,0.3-2L80,51.2c-0.5-0.6-1.4-0.7-2-0.3
			c-0.6,0.5-0.7,1.4-0.3,2l4.2,5.5C82.3,58.9,83,59.1,83.6,58.9z"/>
	</g>
	<g>
		<path class="st0" d="M74.4,68.8c0.5-0.2,0.9-0.8,0.9-1.4c-0.1-0.8-0.7-1.4-1.5-1.3l-7.1,0.5c-0.8,0-1.4,0.7-1.3,1.5
			c0.1,0.8,0.7,1.4,1.5,1.3l7.1-0.5C74.1,68.9,74.2,68.8,74.4,68.8z"/>
	</g>
	<g>
		<path class="st0" d="M80.8,90.5c0.2-0.1,0.5-0.3,0.6-0.5l3.3-4.8c0.4-0.6,0.3-1.5-0.4-2c-0.6-0.4-1.5-0.3-2,0.4l-3.3,4.8
			c-0.4,0.6-0.3,1.5,0.4,2C79.8,90.7,80.3,90.7,80.8,90.5z"/>
	</g>
	<g>
		<path class="st0" d="M93.2,109.5c0.5-0.2,0.8-0.6,0.9-1.2c0.1-0.8-0.5-1.5-1.3-1.5l-6.5-0.6c-0.8-0.1-1.5,0.5-1.5,1.3
			c-0.1,0.8,0.5,1.5,1.3,1.5l6.5,0.6C92.8,109.7,93,109.6,93.2,109.5z"/>
	</g>
	<g>
		<path class="st0" d="M92.3,130.2c0.2,0,0.4-0.1,0.6-0.2l4.2-2.8c0.7-0.4,0.8-1.3,0.4-2c-0.4-0.7-1.3-0.8-2-0.4l-4.2,2.8
			c-0.7,0.4-0.8,1.3-0.4,2C91.2,130,91.8,130.2,92.3,130.2z"/>
	</g>
	<g>
		<path class="st0" d="M107.5,142.5c0.5-0.2,0.9-0.7,0.9-1.3l-0.1-6.2c0-0.8-0.6-1.4-1.4-1.4c-0.8,0-1.4,0.6-1.4,1.4l0.1,6.2
			c0,0.8,0.6,1.4,1.4,1.4C107.2,142.6,107.4,142.5,107.5,142.5z"/>
	</g>
	<g>
		<path class="st0" d="M125.9,133.6c0.1,0,0.2-0.1,0.3-0.2c0.6-0.5,0.8-1.3,0.3-2l-4-5.6c-0.5-0.6-1.3-0.8-2-0.3
			c-0.6,0.5-0.8,1.3-0.3,2l4,5.6C124.6,133.7,125.3,133.9,125.9,133.6z"/>
	</g>
	<g>
		<path class="st0" d="M134.9,119.4c0.4-0.1,0.7-0.4,0.8-0.8c0.3-0.7-0.1-1.5-0.8-1.8l-6.6-2.4c-0.7-0.3-1.5,0.1-1.8,0.8
			c-0.3,0.7,0.1,1.5,0.8,1.8l6.6,2.4C134.2,119.6,134.6,119.5,134.9,119.4z"/>
	</g>
	<g>
		<path class="st0" d="M135.2,101.6c0.7-0.2,1.2-0.9,1.1-1.6c-0.1-0.8-0.8-1.3-1.6-1.2l-7.1,1.1c-0.8,0.1-1.3,0.8-1.2,1.6
			c0.1,0.8,0.8,1.3,1.6,1.2l7.1-1.1C135.1,101.6,135.1,101.6,135.2,101.6z"/>
	</g>
	<g>
		<path class="st0" d="M125.9,87C125.9,87,125.9,87,125.9,87l6.7-3.1c0.7-0.3,1-1.2,0.7-1.9c-0.3-0.7-1.2-1-1.9-0.7l-6.7,3.1
			c-0.7,0.3-1,1.2-0.7,1.9C124.4,87,125.2,87.3,125.9,87z"/>
	</g>
</g>
<path d="M127,117.8c6.9-17.7-4-42-15.6-55.1c-13-14.7-37.7-5.7-37.8,7c-0.1,10.9,10,12.2,14.9,20.1c6.7,11.1,3.3,16.2,4.4,28.3
	C95,141.8,118.6,139.6,127,117.8z M100.4,117.4c-0.3-3.3-0.2-6.1-0.1-8.8c0.2-6.5,0.4-13.2-5.3-22.7c-2.5-4.2-6-6.9-8.7-9
	c-4.2-3.3-5.1-4.2-5-7c0-1.7,2.2-4,5.3-5.4c5.7-2.7,13.9-2.6,19.3,3.4c11.1,12.6,19.5,33.8,14.2,47.4c-2.1,5.5-5.6,9.7-9.5,11.5
	c-1.3,0.6-3.8,1.4-5.9,0.2C102.3,125.5,100.8,122.1,100.4,117.4z"/>
</svg>
