<?xml version="1.0" encoding="utf-8"?>
<!-- Generator: Adobe Illustrator 24.0.0, SVG Export Plug-In . SVG Version: 6.00 Build 0)  -->
<svg version="1.1" id="Layer_1" xmlns="http://www.w3.org/2000/svg" xmlns:xlink="http://www.w3.org/1999/xlink" x="0px" y="0px"
	 viewBox="0 0 172.7 125.9" style="enable-background:new 0 0 172.7 125.9;" xml:space="preserve">
<style type="text/css">
	.st0{fill:#ED1C24;}
	.st1{fill:#005BAA;}
	.st2{clip-path:url(#SVGID_2_);}
	.st3{clip-path:url(#SVGID_4_);}
	.st4{clip-path:url(#SVGID_6_);}
	.st5{clip-path:url(#SVGID_8_);fill:#F58220;}
	.st6{fill:#F58220;}
	.st7{clip-path:url(#SVGID_10_);}
	.st8{clip-path:url(#SVGID_12_);}
	.st9{clip-path:url(#SVGID_14_);}
	.st10{clip-path:url(#SVGID_16_);}
</style>
<g>
	<path class="st0" d="M129.5,97.8l-1.2,1.8c-1.1,0-1.9-0.2-2.4-0.6s-0.7-1.1-0.7-2v-2.7c-0.5,0.1-1,0.3-1.4,0.4s-0.7,0.2-0.8,0.3
		c-1,0.3-1.5,0.8-1.5,1.4c0,0.4,0.2,0.8,0.5,1.1c0.4,0.3,0.9,0.4,1.5,0.4c0.2,0,0.4,0,0.7-0.1c0.3-0.1,0.8-0.2,1.4-0.3l-1.6,2.2
		l-0.8,0.2h-0.6c-1.1,0-2-0.3-2.7-0.9c-0.7-0.7-1-1.5-1-2.5c0-0.7,0.3-1.4,0.8-2c0.2-0.2,0.6-0.5,1.1-0.7c0.1,0,0.4-0.1,1.1-0.3
		c0.7-0.2,1.1-0.3,1.4-0.4s0.5-0.1,0.7-0.2c0.4-0.1,0.7-0.2,0.9-0.4c0.2-0.1,0.4-0.3,0.4-0.6c0-0.3-0.2-0.6-0.5-0.8
		c-0.3-0.2-0.8-0.3-1.5-0.3c-0.3,0-0.8,0.1-1.3,0.3c-0.5,0.2-1.2,0.5-2,0.9l1.9-3l1.9-0.1c1.1,0,1.9,0.3,2.6,0.8
		c0.5,0.4,0.8,0.8,1,1.4c0.2,0.5,0.2,1.2,0.2,2.1v2.4c0,1,0.1,1.6,0.2,1.9c0.1,0.2,0.2,0.3,0.5,0.3
		C128.5,97.8,128.9,97.8,129.5,97.8 M118.6,96.6l-1.6,2.7c-0.3,0.2-0.7,0.4-1.2,0.6s-0.9,0.2-1.4,0.2c-1.7,0-3.1-0.5-4.3-1.5
		c-1.1-1-1.7-2.4-1.7-4s0.6-3,1.7-4.1s2.5-1.7,4.1-1.7c0.6,0,1.5,0.1,2.7,0.3V92c-0.6-0.4-1.1-0.7-1.6-0.9c-0.5-0.2-0.9-0.3-1.2-0.3
		c-0.9,0-1.6,0.3-2.2,0.9c-0.5,0.6-0.8,1.4-0.8,2.4s0.3,1.9,1,2.7c0.7,0.7,1.6,1.1,2.6,1.1c0.3,0,0.6,0,0.8,0c0.2,0,0.4-0.1,0.7-0.2
		c0.3-0.1,0.5-0.2,0.8-0.3C117.3,97.3,117.8,97,118.6,96.6 M108.1,99.7h-3.9c0.3-0.4,0.5-0.7,0.7-1c0.1-0.3,0.2-0.7,0.2-1.1v-6.4
		c0-0.4-0.1-0.8-0.2-1.1c-0.1-0.3-0.3-0.6-0.7-1.1h0.8c0.3,0,0.5,0,0.7,0s0.4-0.1,0.7-0.1c0.2,0,0.5-0.1,0.9-0.2v8.9
		c0,0.2,0,0.4,0,0.5s0,0.3,0.1,0.5s0.1,0.3,0.2,0.4C107.7,99.1,107.8,99.3,108.1,99.7 M103.4,99.7h-4.5c0.4-0.4,0.7-0.7,0.9-1
		c0.2-0.3,0.2-0.7,0.2-1.1V94c0-1-0.2-1.7-0.5-2.2s-0.9-0.7-1.7-0.7c-0.8,0-1.4,0.2-1.7,0.6c-0.3,0.4-0.5,1.1-0.5,2.1v3.7
		c0,0.4,0.1,0.8,0.2,1.1c0.2,0.3,0.4,0.7,0.9,1h-4.5c0.4-0.4,0.7-0.7,0.9-1c0.2-0.3,0.2-0.7,0.2-1.1V94c0-1-0.2-1.7-0.5-2.2
		s-0.9-0.7-1.7-0.7c-0.8,0-1.4,0.2-1.7,0.6c-0.3,0.4-0.5,1.1-0.5,2.1v3.7c0,0.4,0,0.7,0.1,0.9c0.1,0.2,0.2,0.4,0.3,0.6
		c0,0,0.2,0.2,0.6,0.6h-4.5c0.5-0.4,0.8-0.7,0.9-1c0.2-0.3,0.2-0.7,0.2-1.1v-6.3c0-0.3,0-0.6-0.1-0.9c-0.1-0.2-0.2-0.4-0.3-0.6
		c-0.1-0.1-0.4-0.4-0.8-0.7h1h0.9l1.6-0.2l0.1,1.3c0.9-0.9,1.9-1.3,2.9-1.3c1.4,0,2.5,0.5,3.3,1.6c1.2-1.1,2.3-1.6,3.4-1.6
		c0.6,0,1.1,0.1,1.5,0.2c0.4,0.2,0.8,0.4,1.2,0.8c0.7,0.7,1.1,1.7,1.1,2.9v4.7c0,0.4,0.1,0.7,0.2,1.1
		C102.7,98.9,103,99.3,103.4,99.7"/>
	<path class="st1" d="M37.4,85.6c-5.4,1.2-10,1.9-13.8,1.9c-5.4,0-10-1.1-13.8-3.3c-3-1.9-5.4-4.3-7.1-7.4C0.9,73.7,0,70.2,0,66.4
		c0-6.2,2.4-11.5,7.1-15.8c4.4-3.9,9.7-5.9,15.9-5.9c2.7,0,6.2,0.4,10.5,1.2v8.3c-2-1.3-3.9-2.2-5.7-2.9c-1.8-0.6-3.5-0.9-5.1-0.9
		c-4.4,0-7.9,1.4-10.5,4.2c-2.7,2.8-4,6.6-4,11.2c0,4.9,1.4,8.8,4.1,11.6c2.7,2.9,6.5,4.3,11.5,4.3c1.2,0,2.4-0.1,3.4-0.2
		c1-0.2,2.2-0.5,3.6-0.9v-7.8v-2.9c-0.2-0.8-0.4-1.5-0.8-2.1s-1.2-1.5-2.5-2.6h10L37.4,85.6L37.4,85.6z M162.8,58.3l-11.8,31
		c-2.4,6.4-6.5,9.6-12.3,9.6c-0.5,0-0.9,0-1.5-0.1c-0.5-0.1-1.1-0.2-1.7-0.3c-0.6-0.2-1.3-0.3-2-0.5s-1.5-0.5-2.4-1l6.2-4.7
		c1.1,0.7,2.2,1.1,3.2,1.1c2.4,0,4.3-2.5,5.9-7.5c-0.3-0.3-0.5-0.6-0.8-1s-0.5-0.7-0.7-1l-1.6-3.6l-6.6-15.8
		c-0.3-0.6-0.6-1.1-0.8-1.7c-0.4-0.9-0.8-1.5-1.1-1.8c-0.1-0.2-0.3-0.4-0.6-0.6c-0.3-0.2-0.7-0.5-1.2-0.8l0.4-1.2h7.5l1.1,1.5
		l0.6,1.6l6.9,16.7l5.1-13.6c0.4-1.2,0.5-2.1,0.5-2.8c0-0.3-0.2-0.7-0.5-1.2s-0.9-1.2-1.8-2.2L162.8,58.3L162.8,58.3z M134.4,86.1
		l-8.5-0.2c-0.4-0.2-0.8-0.3-1.1-0.6c-0.3-0.2-0.6-0.6-1-1.2l-1.2-1.7l-4.5-6.6l-4.5,5.6c-0.8,0.9-1.1,1.7-1.1,2.3
		c0,0.2,0.2,0.4,0.5,0.8c0.2,0.2,0.6,0.7,1.2,1.4h-10.9l12-14.5l-5.3-7.7c-0.7-1-1.4-1.8-2-2.4c-0.8-0.8-1.9-1.9-3.5-3.2l8.4,0.2
		c0.7,0.4,1.2,0.8,1.5,1.3c0.1,0.1,0.5,0.6,1.1,1.4l3.8,5.6l2.4-2.9c1.2-1.5,1.8-2.5,1.8-2.9c0-0.3-0.2-0.7-0.6-1.1
		c-0.6-0.6-1.1-1-1.5-1.4h11.3L122.3,71l7.2,10.5c0.3,0.4,0.5,0.7,0.8,1s0.6,0.7,1,1L134.4,86.1L134.4,86.1z M105.7,81.2l-3.1,4.8
		c-3,0-5.2-0.5-6.4-1.6c-1.3-1.1-1.9-2.8-1.9-5.3V72c-1.4,0.4-2.6,0.7-3.8,1c-1.2,0.3-1.9,0.6-2.2,0.7c-2.6,0.9-3.9,2.1-3.9,3.8
		c0,1.2,0.5,2.1,1.4,2.9c1,0.8,2.3,1.1,4,1.1c0.5,0,1.1-0.1,1.9-0.2c0.8-0.2,2-0.5,3.6-0.9L91,86.3l-2,0.5h-1.7
		c-2.8,0-5.2-0.8-7.2-2.5c-1.8-1.8-2.7-3.9-2.7-6.5c0-1.9,0.7-3.7,2-5.3c0.6-0.6,1.5-1.2,2.9-1.8c0.2-0.1,1.2-0.4,2.9-0.9
		c1.8-0.5,3-0.8,3.8-1s1.4-0.4,1.7-0.5c1-0.3,1.8-0.6,2.4-0.9s1-0.9,1.1-1.7c0-0.8-0.5-1.5-1.4-2.2c-0.9-0.6-2.2-0.9-4-0.9
		c-0.9,0-2,0.2-3.3,0.7s-3.1,1.2-5.4,2.3l5-8l5-0.4c2.8,0,5.1,0.7,7,2.1c1.4,1,2.2,2.2,2.7,3.6c0.4,1.5,0.6,3.3,0.6,5.6V75
		c0,2.6,0.2,4.2,0.6,5c0.2,0.4,0.6,0.7,1.3,0.8C103.1,81.1,104.2,81.2,105.7,81.2 M77.1,86.1H66.7c0.9-1,1.4-1.9,1.8-2.8
		c0.3-0.9,0.5-1.8,0.5-2.9V51.8c0-1.2-0.1-2.1-0.4-2.9c-0.3-0.8-0.9-1.7-1.8-2.7h1.7c0.9,0,1.6-0.1,2.3-0.2c0.7-0.1,1.4-0.2,2.1-0.3
		s1.4-0.3,2-0.5v35.3c0,0.5,0,0.9,0.1,1.2c0,0.3,0.1,0.8,0.2,1.5c0.2,0.4,0.3,0.8,0.5,1.1C75.9,84.6,76.3,85.2,77.1,86.1 M67.5,81.2
		L64.4,86c-3,0-5.2-0.5-6.4-1.6c-1.3-1.1-1.9-2.8-1.9-5.3V72c-1.4,0.4-2.6,0.7-3.8,1s-1.9,0.6-2.2,0.7c-2.6,0.9-3.9,2.1-3.9,3.8
		c0,1.2,0.5,2.1,1.4,2.9c1,0.8,2.3,1.1,4,1.1c0.5,0,1.1-0.1,1.9-0.2c0.8-0.2,2-0.5,3.6-0.9l-4.3,5.9l-2,0.5H49
		c-2.8,0-5.2-0.8-7.1-2.5c-1.8-1.8-2.7-3.9-2.7-6.5c0-1.9,0.7-3.7,2-5.3c0.6-0.6,1.5-1.2,2.9-1.8c0.2-0.1,1.2-0.4,2.9-0.9
		c1.8-0.5,3-0.8,3.8-1s1.4-0.4,1.7-0.5c1-0.3,1.8-0.6,2.4-0.9c0.6-0.3,1-0.9,1.1-1.7c0-0.8-0.5-1.5-1.4-2.2c-0.9-0.6-2.2-0.9-4-0.9
		c-0.9,0-2,0.2-3.3,0.7s-3.1,1.2-5.4,2.3l5-8l5-0.4c2.8,0,5.1,0.7,7,2.1c1.4,1,2.2,2.2,2.7,3.6c0.4,1.5,0.6,3.3,0.6,5.6V75
		c0,2.6,0.2,4.2,0.6,5c0.2,0.4,0.6,0.7,1.3,0.8C64.8,81.1,65.9,81.2,67.5,81.2"/>
	<g>
		<g>
			<defs>
				<rect id="SVGID_1_" width="172.7" height="125.9"/>
			</defs>
			<clipPath id="SVGID_2_">
				<use xlink:href="#SVGID_1_"  style="overflow:visible;"/>
			</clipPath>
			<path class="st2" d="M171.4,52.3l-0.8,3.3l-0.9-3.3h-1.3v4.3h0.8v-3.5l0.9,3.5h0.9l0.9-3.5v3.5h0.8v-4.3H171.4L171.4,52.3z
				 M164.5,52.3v0.8h1.3v3.5h0.9v-3.5h1.3v-0.8H164.5L164.5,52.3z"/>
		</g>
		<g>
			<defs>
				<rect id="SVGID_3_" width="172.7" height="125.9"/>
			</defs>
			<clipPath id="SVGID_4_">
				<use xlink:href="#SVGID_3_"  style="overflow:visible;"/>
			</clipPath>
			<path class="st3" d="M100.4,111.8c0.1-0.1,0.3-0.2,0.6-0.2c0.3,0,0.4,0.1,0.6,0.2c0.1,0.1,0.2,0.3,0.3,0.5c0.1,0.2,0.1,0.4,0,0.6
				s-0.2,0.5-0.3,0.8c-0.1,0.4-0.2,0.8-0.4,1.5c-0.2,0.6-0.1,1,0,1.1c0.2,0.1,0.5,0.2,0.9,0.2c0.4,0.1,1.1,0.1,2.1,0.1
				c0.9,0,0.9,0-0.2,0.2c-1,0.2-1.8,0.3-2.3,0.4s-0.8,0.2-1,0.3c-0.2,0.1-0.4,0.6-0.8,1.6s-0.6,1.7-0.8,2c-0.1,0.3-0.2,0.6-0.4,0.7
				c-0.1,0.1-0.3,0.2-0.5,0.3c-0.2,0.1-0.4,0-0.6,0c-0.2-0.1-0.2-0.4,0-1s0.4-1.2,0.7-2c0.3-0.8,0.5-1.2,0.5-1.4
				c0-0.2-0.1-0.3-0.4-0.2c-0.3,0-0.5,0.1-0.8,0.1c-0.2,0-0.3-0.1-0.3-0.4s0.2-0.5,0.5-0.7c0.4-0.2,0.7-0.3,0.9-0.3
				c0.3,0,0.5-0.4,0.7-1.1c0.2-0.8,0.3-1.3,0.4-1.5c0-0.3,0.1-0.6,0.2-1C100.1,112.3,100.2,112,100.4,111.8 M93.5,115.1
				c0.2-0.1,0.5-0.1,0.7,0c0.3,0,0.5,0.1,0.6,0.2c0.2,0.1,0.3,0.4,0.5,0.7c0.2,0.4,0.1,0.6-0.2,0.7c-0.3,0.1-0.5,0.1-0.8-0.1
				c-0.2-0.2-0.5-0.3-0.7-0.1c-0.2,0.1-0.5,0.3-0.7,0.4s-0.5,0.3-0.9,0.6c-0.3,0.3-0.7,0.6-1.1,1.1c-0.4,0.4-0.6,0.7-0.6,0.8
				c0,0.1,0.1,0.1,0.3,0c0.2-0.2,0.6-0.4,1.1-0.7c0.5-0.3,1.1-0.6,1.8-1c0.7-0.3,1.2-0.5,1.4-0.4c0.2,0.1,0.4,0.2,0.5,0.4
				c0.1,0.2,0.2,0.4,0.2,0.5s0,0.3-0.1,0.3c-0.1,0.1-0.1,0.3-0.2,0.6c-0.1,0.3-0.1,0.6,0,0.8c0.1,0.3,0.2,0.5,0.4,0.6
				c0.1,0.1,0.4,0.1,0.6,0.1c0.3,0,0.6-0.2,1-0.6s0.4-0.3,0,0.2s-0.7,0.9-1,1c-0.2,0.1-0.4,0.2-0.6,0.2c-0.1,0-0.3,0-0.5-0.1
				s-0.4-0.2-0.6-0.4c-0.2-0.2-0.4-0.4-0.5-0.6c-0.1-0.3-0.2-0.4-0.2-0.6c0-0.1-0.1-0.3-0.3-0.4c-0.1-0.1-0.3-0.2-0.5-0.1
				s-0.6,0.3-1.1,0.7c-0.5,0.4-1,0.7-1.4,0.9c-0.4,0.2-0.8,0.4-1.2,0.5c-0.3,0.1-0.6,0.1-0.7,0.1s-0.2-0.1-0.3-0.3
				c-0.1-0.2-0.2-0.4-0.2-0.6s0-0.4,0.1-0.7c0.1-0.2,0.4-0.7,0.9-1.4c0.5-0.7,1.1-1.2,1.6-1.7c0.5-0.4,1-0.8,1.6-1.1
				C92.9,115.3,93.3,115.1,93.5,115.1 M83.2,106.9c0.1-0.1,0.2-0.1,0.4,0c0.2,0.1,0.4,0.3,0.5,0.6c0.1,0.4,0.1,0.6,0,0.6
				c-0.1,0.1-0.1,0.2-0.2,0.4c-0.1,0.2-0.2,0.6-0.4,1.1c-0.2,0.6-0.6,1.7-1.3,3.3c-0.6,1.6-1,2.6-1.2,3.1s-0.2,0.6,0,0.6
				c0.2-0.1,0.4-0.1,0.7-0.2c0.2,0,0.6-0.1,1.1-0.2s1.1-0.2,1.8-0.4c0.7-0.2,1.1-0.3,1.2-0.4s0.2-0.3,0.4-0.8
				c0.1-0.4,0.4-1.4,0.9-2.8c0.5-1.5,0.7-2.3,0.7-2.4s0.1-0.1,0.2-0.1s0.3,0.1,0.4,0.2c0.2,0.1,0.3,0.2,0.3,0.4
				c0,0.2,0.1,0.3,0.1,0.5c0,0.1-0.1,0.6-0.3,1.5c-0.2,0.8-0.4,1.5-0.5,2s-0.1,0.7-0.1,0.8c0,0.1,0.3,0.1,0.7-0.1
				c0.4-0.1,0.6,0.1,0.6,0.5c0,0.5-0.2,0.8-0.7,0.9s-0.8,0.2-1,0.3c-0.1,0.1-0.3,0.3-0.4,0.7c-0.1,0.4-0.4,1.2-0.8,2.4
				c-0.4,1.2-0.7,2-0.9,2.5c-0.2,0.4-0.4,0.9-0.8,1.4c-0.3,0.5-0.4,0.3-0.3-0.5c0.2-0.8,0.3-1.3,0.4-1.5s0.1-0.5,0.2-1
				c0.1-0.4,0.2-0.9,0.3-1.4c0.1-0.5,0.2-1,0.3-1.3c0.1-0.4-0.4-0.4-1.3-0.2c-0.9,0.3-1.8,0.5-2.7,0.8c-0.9,0.3-1.4,0.6-1.6,1
				s-0.5,1.3-1,2.9c-0.5,1.5-0.8,2.5-1,2.9c-0.1,0.4-0.3,0.7-0.5,0.9c-0.2,0.2-0.4,0.2-0.6,0s-0.3-0.3-0.4-0.4s0.1-0.9,0.6-2.5
				s0.8-2.6,1-3.1s0.1-0.8-0.1-0.9c-0.3-0.1-0.4-0.3-0.5-0.5c0-0.2,0-0.4,0-0.6c0.1-0.2,0.3-0.4,0.6-0.6c0.3-0.2,0.6-0.4,0.8-0.5
				c0.2-0.1,0.3-0.4,0.5-0.8s0.3-0.8,0.5-1.2c0.2-0.4,0.5-1.2,0.9-2.4c0.5-1.2,0.9-2.4,1.4-3.5c0.4-1.1,0.7-1.7,0.8-1.8
				S83.1,107,83.2,106.9 M67,115.1c0.2-0.1,0.5-0.1,0.7,0c0.3,0,0.5,0.1,0.6,0.2c0.2,0.1,0.3,0.4,0.5,0.7c0.1,0.4,0.1,0.6-0.2,0.7
				c-0.3,0.1-0.5,0.1-0.8-0.1c-0.2-0.2-0.5-0.3-0.7-0.1c-0.2,0.1-0.5,0.3-0.7,0.4s-0.5,0.3-0.9,0.6c-0.4,0.3-0.7,0.6-1.1,1.1
				c-0.4,0.4-0.6,0.7-0.6,0.8c0,0.1,0.1,0.1,0.3,0c0.2-0.2,0.6-0.4,1.1-0.7c0.5-0.3,1.1-0.6,1.8-1c0.7-0.3,1.2-0.5,1.4-0.4
				c0.2,0.1,0.4,0.2,0.5,0.4c0.1,0.2,0.2,0.4,0.2,0.5s0,0.3-0.1,0.3c-0.1,0.1-0.1,0.3-0.2,0.6c-0.1,0.3-0.1,0.6,0,0.8
				c0.1,0.3,0.2,0.5,0.4,0.6c0.1,0.1,0.4,0.1,0.6,0.1c0.3,0,0.6-0.2,1-0.6s0.4-0.3-0.1,0.2c-0.4,0.5-0.7,0.9-1,1
				c-0.2,0.1-0.4,0.2-0.6,0.2c-0.1,0-0.3,0-0.5-0.1s-0.4-0.2-0.6-0.4c-0.2-0.2-0.3-0.4-0.5-0.6c-0.1-0.3-0.2-0.4-0.2-0.6
				c0-0.1-0.1-0.3-0.3-0.4c-0.1-0.1-0.3-0.2-0.5-0.1s-0.6,0.3-1.1,0.7c-0.5,0.4-1,0.7-1.4,0.9c-0.4,0.2-0.8,0.4-1.2,0.5
				c-0.3,0.1-0.6,0.1-0.7,0.1c-0.1,0-0.2-0.1-0.3-0.3c-0.1-0.2-0.2-0.4-0.2-0.6s0-0.4,0.1-0.7c0.1-0.2,0.4-0.7,0.9-1.4
				c0.5-0.7,1.1-1.2,1.6-1.7c0.5-0.4,1-0.8,1.6-1.1C66.4,115.3,66.7,115.1,67,115.1 M56.4,117c0.3-1.4,0.7-2,1-2s0.6,0.2,0.7,0.4
				c0.2,0.3,0.2,0.6,0,1s-0.2,0.6-0.1,0.5c0.2,0,0.4-0.1,0.6-0.3c0.3-0.2,0.5-0.3,0.8-0.4c0.2-0.1,0.4-0.2,0.6-0.2
				c0.1,0,0.4,0,0.8,0.1c0.4,0.1,0.8,0.3,1.2,0.5s0.9,0.2,1.5,0.1c0.6-0.2,0.5-0.1-0.2,0.2c-0.7,0.3-1.5,0.5-2.3,0.4
				c-0.8,0-1.4,0.1-1.8,0.3c-0.4,0.2-0.8,0.4-1.1,0.7c-0.3,0.3-0.6,0.7-0.8,1.2c-0.3,0.6-0.4,1.1-0.6,1.4c-0.1,0.4-0.2,0.7-0.4,1
				c-0.1,0.2-0.3,0.4-0.6,0.4s-0.5-0.1-0.6-0.3c-0.1-0.2-0.1-0.4-0.1-0.5s0.2-0.5,0.4-1.3C55.8,119.5,56.1,118.4,56.4,117
				 M51.9,115.1c0.2-0.1,0.5-0.1,0.7,0c0.3,0,0.5,0.1,0.6,0.2c0.2,0.1,0.3,0.4,0.5,0.7c0.1,0.4,0.1,0.6-0.2,0.7s-0.5,0.1-0.8-0.1
				c-0.2-0.2-0.5-0.3-0.7-0.1c-0.2,0.1-0.5,0.3-0.7,0.4s-0.5,0.3-0.9,0.6c-0.3,0.3-0.7,0.6-1.1,1.1c-0.4,0.4-0.6,0.7-0.6,0.8
				c0,0.1,0.1,0.1,0.3,0c0.2-0.2,0.6-0.4,1.1-0.7c0.5-0.3,1.1-0.6,1.8-1c0.7-0.3,1.2-0.5,1.4-0.4s0.4,0.2,0.5,0.4
				c0.1,0.2,0.2,0.4,0.2,0.5s0,0.3-0.1,0.3c-0.1,0.1-0.1,0.3-0.2,0.6c-0.1,0.3-0.1,0.6,0,0.8c0.1,0.3,0.2,0.5,0.4,0.6
				s0.4,0.1,0.6,0.1c0.3,0,0.6-0.2,1-0.6s0.4-0.3-0.1,0.2c-0.4,0.5-0.7,0.9-1,1c-0.2,0.1-0.4,0.2-0.6,0.2c-0.1,0-0.3,0-0.5-0.1
				s-0.4-0.2-0.6-0.4c-0.2-0.2-0.3-0.4-0.5-0.6c-0.1-0.3-0.2-0.4-0.2-0.6c0-0.1-0.1-0.3-0.3-0.4c-0.1-0.1-0.3-0.2-0.5-0.1
				s-0.6,0.3-1.1,0.7c-0.5,0.4-1,0.7-1.4,0.9c-0.4,0.2-0.8,0.4-1.2,0.5c-0.3,0.1-0.6,0.1-0.7,0.1c-0.1,0-0.2-0.1-0.3-0.3
				c-0.1-0.2-0.2-0.4-0.2-0.6s0-0.4,0.1-0.7c0.1-0.2,0.4-0.7,0.9-1.4c0.5-0.7,1.1-1.2,1.6-1.7c0.5-0.4,1-0.8,1.6-1.1
				C51.2,115.3,51.6,115.1,51.9,115.1 M40,108.9c0.4,0,0.8,0,1.2,0s1.1,0.2,2.1,0.4c1,0.3,1.6,0.5,1.9,0.6c0.3,0.1,0.6,0.3,1,0.5
				s0.6,0.4,0.7,0.6c0.1,0.2,0.1,0.3,0.2,0.5c0,0.2-0.1,0.6-0.3,1.3c-0.2,0.7-0.8,1.6-1.7,2.7c-1,1.1-2,2-3,2.9
				c-1.1,0.8-1.2,1.4-0.4,1.5c0.8,0.2,1.6,0.4,2.6,0.6s2,0.6,2.9,1c1,0.5,1.5,0.8,1.5,0.9s0,0.2-0.1,0.3c-0.1,0.1-0.3,0.1-0.7,0.2
				c-0.3,0-0.7,0-1.1,0c-0.4,0-0.7-0.1-1-0.3c-0.3-0.1-0.9-0.3-1.7-0.5c-0.9-0.2-1.6-0.4-2.1-0.4c-0.5-0.1-1-0.2-1.5-0.2
				c-0.5-0.1-1-0.1-1.5,0.1s-0.9,0.2-1.2,0.1s-0.4-0.2-0.4-0.3c0-0.1-0.1-0.2-0.2-0.3c-0.1-0.1-0.1-0.2,0.1-0.4
				c0.2-0.2,1.1-1.2,2.9-2.7c1.8-1.6,2.9-2.7,3.5-3.4c0.6-0.7,1-1.3,1.3-1.9s0-1-0.8-1.2c-0.9-0.3-1.5-0.4-1.8-0.5s-0.8-0.2-1.4-0.2
				c-0.6,0-1.1,0-1.4,0.1c-0.3,0.1-0.5,0.2-0.7,0.2c-0.1,0-0.3-0.1-0.4-0.2c-0.1-0.1-0.3-0.2-0.4-0.2c-0.1,0-0.2-0.1-0.2-0.4
				c0-0.2,0.1-0.4,0.2-0.6c0.1-0.1,0.2-0.2,0.4-0.3c0.2-0.1,0.4-0.1,0.7-0.2C39.2,109,39.6,108.9,40,108.9"/>
		</g>
		<g>
			<defs>
				<rect id="SVGID_5_" width="172.7" height="125.9"/>
			</defs>
			<clipPath id="SVGID_6_">
				<use xlink:href="#SVGID_5_"  style="overflow:visible;"/>
			</clipPath>
			<path class="st4" d="M122.7,116.3c-0.1-0.1-0.2,0-0.5,0.1s-0.5,0.3-0.6,0.5s-0.1,0.3-0.1,0.4c0.1,0.1,0.2,0,0.5-0.1
				s0.5-0.3,0.6-0.4C122.8,116.6,122.8,116.4,122.7,116.3 M122.7,115c0.6,0,1,0.1,1.2,0.3c0.1,0.3,0.2,0.6,0.2,1s-0.2,0.8-0.6,1.1
				c-0.4,0.3-0.9,0.6-1.5,0.9c-0.2,0.1-0.3,0.1-0.5,0.1c-0.1,0-0.3,0-0.4,0s-0.2,0-0.2,0c-0.1,0-0.1,0-0.1,0
				c-0.2,0.3-0.3,0.6-0.3,0.8c0,0.3,0.1,0.5,0.3,0.8c0.2,0.2,0.4,0.4,0.6,0.4s0.5,0,0.7,0c0.3-0.1,0.7-0.2,1.4-0.5
				c0.7-0.3,1.2-0.5,1.4-0.8c0.3-0.2,0.5-0.5,0.8-0.7c0.2-0.2,0.3-0.2,0.1,0c-0.2,0.2-0.4,0.5-0.6,0.8c-0.3,0.3-0.6,0.7-1,1
				s-0.7,0.6-0.9,0.8c-0.2,0.2-0.6,0.3-1,0.5c-0.4,0.1-0.8,0.2-1.2,0.1c-0.4-0.1-0.7-0.1-0.9-0.3c-0.2-0.1-0.4-0.3-0.5-0.4
				c-0.2-0.2-0.3-0.4-0.4-0.6s-0.2-0.6-0.2-1s0.1-0.9,0.3-1.4c0.2-0.5,0.4-0.9,0.7-1.2c0.3-0.3,0.6-0.6,1-1
				C121.6,115.3,122.1,115.1,122.7,115 M114.3,106.3c0.2-0.1,0.3-0.1,0.5,0s0.3,0.3,0.4,0.5s0.1,0.4,0.2,0.6s-0.1,0.7-0.5,1.6
				s-0.9,1.9-1.3,3c-0.5,1.1-0.8,2-1.1,2.7c-0.3,0.7-0.3,1.1-0.2,1.3c0.1,0.1,0.5,0,1.1-0.5c0.7-0.5,1.2-0.9,1.8-1.4
				c0.5-0.4,1.3-1,2.2-1.9c0.9-0.8,1.5-1.3,1.9-1.6c0.3-0.2,0.6-0.4,0.7-0.4c0.2,0,0.4,0,0.6,0.1s0.4,0.2,0.5,0.4
				c0.1,0.2,0.1,0.4,0,0.5c-0.1,0.2-0.2,0.4-0.4,0.6c-0.2,0.2-0.5,0.4-0.8,0.6c-0.4,0.2-0.7,0.4-1.2,0.8c-0.4,0.4-0.7,0.6-0.9,0.7
				c-0.2,0.1-0.5,0.4-0.9,0.8s-1.1,0.9-1.9,1.5s-0.8,1.2,0.2,1.7c1,0.6,1.6,1,1.9,1.2s0.6,0.3,0.9,0.4c0.2,0.1,0.4,0.1,0.6,0.2
				s0.3,0.2,0.4,0.3c0.1,0.1,0.1,0.2-0.1,0.4c-0.2,0.1-0.3,0.2-0.6,0.2c-0.2,0-0.5,0-1,0c-0.4,0-0.8-0.1-1.2-0.2
				c-0.3-0.1-0.7-0.3-1.1-0.5s-0.7-0.4-1-0.6s-0.5-0.4-0.7-0.5s-0.5-0.3-1-0.7c-0.5-0.4-0.8-0.5-1-0.4s-0.3,0.5-0.6,1.3
				c-0.2,0.8-0.6,2-1.3,3.5c-0.6,1.5-1.1,2.3-1.3,2.4c-0.3,0.1-0.4,0-0.5-0.1c-0.1-0.2-0.1-0.5-0.1-0.9s0.2-0.9,0.4-1.5
				c0.2-0.6,0.4-1.1,0.6-1.8c0.2-0.6,0.5-1.6,1-3s0.8-2.2,0.9-2.3c0.1-0.2,0.2-0.4,0.4-0.8c0.2-0.4,0.4-1,0.6-1.9
				c0.2-0.8,0.5-1.4,0.6-1.8c0.2-0.4,0.4-0.8,0.6-1.4s0.4-1,0.4-1.2c0.1-0.2,0.1-0.5,0.2-0.7c0.1-0.3,0.2-0.5,0.4-0.7
				C114,106.5,114.1,106.4,114.3,106.3"/>
		</g>
		<g>
			<defs>
				<rect id="SVGID_7_" width="172.7" height="125.9"/>
			</defs>
			<clipPath id="SVGID_8_">
				<use xlink:href="#SVGID_7_"  style="overflow:visible;"/>
			</clipPath>
			<polygon class="st5" points="0,117.5 32.9,117.5 32.9,116.7 0,116.7 			"/>
		</g>
	</g>
	<polygon class="st6" points="130.1,117.5 163,117.5 163,116.7 130.1,116.7 	"/>
	<g>
		<g>
			<defs>
				<path id="SVGID_9_" d="M96.4,19.2c-2.9,0-4.6-0.8-5.7-1.8l-0.3,0.2c-1.4,1.1-6.9,5.7-6.9,7.7c0.1,1.8,2.9,3,5.1,3.1
					c0.3,0,0.5,0,0.8,0c16.4-0.1,33.4-11.2,33.4-23.3C118.4,12.4,105.5,19.3,96.4,19.2 M133.3,24c-2.4,0-5.7,13.5-24.2,13.5
					c-2.6,0-4.8-0.1-6.6-0.4c-0.5,0.1-1.1,0.1-1.6,0.2c-2.7,0.4-5.7,1.1-8.1,2.5c-1,0.6-2.9,1.9-3,3.2c0,2.4,3.9,3.9,5.6,4.4
					c1.2,0.2,2.6,0.3,4.1,0.3c18.9-0.1,29.8-14,32.3-14c1.2,0,0.6,3.4-1,6.5C134.4,34.3,135.6,24,133.3,24L133.3,24L133.3,24z"/>
			</defs>
			<clipPath id="SVGID_10_">
				<use xlink:href="#SVGID_9_"  style="overflow:visible;"/>
			</clipPath>
			<g class="st7">
				<g>
					<defs>
						<rect id="SVGID_11_" x="83.5" y="5.2" width="52.1" height="42.5"/>
					</defs>
					<clipPath id="SVGID_12_">
						<use xlink:href="#SVGID_11_"  style="overflow:visible;"/>
					</clipPath>
					<g class="st8">
						
							<image style="overflow:visible;enable-background:new    ;" width="117" height="94" xlink:href="D434585B.jpg"  transform="matrix(0.4735 0 0 -0.4735 82.5456 48.9238)">
						</image>
					</g>
				</g>
			</g>
		</g>
	</g>
	<g>
		<g>
			<defs>
				<path id="SVGID_13_" d="M81.4,24.1L81.4,24.1c-0.1,2.7,1.6,3.9,5.4,4.2c-1.6-0.2-3.6-1.8-3.7-3C83,21.3,104,4.6,121.6,3.8
					c-4-2.4-8.7-3.8-13.7-3.8C94,0,82.6,10.6,81.4,24.1 M87.2,31.4c-1,0-2,0-2.9,0c-1.5-0.1-2.5-0.1-2.5,0.2c0.2,1,0.4,1.9,0.7,2.8
					c0.8,2.5,2.2,5.6,4.4,8.3c2.1,2.6,4.3,3.7,6.4,4.3c-3-1.1-3.9-3.2-3.8-4c0.2-2.2,4.6-5.1,11.5-6c12.9-1.7,29.5-4.9,31.2-21.3
					c-1.6-3.6-4.1-6.8-7-9.3C120.3,25,104.8,30.6,87.2,31.4 M128.7,36.1c-1.3,1-2.6,2-3.9,3c-5.5,6.5-14.2,11.8-24.9,11.5
					c-1.5-0.1-2.8,0-4.3-0.4c3.7,1.9,7.9,3,12.3,3c8.5,0,16-3.9,20.9-10.1c1.8-2.6,2.8-4.6,3.1-7.2c0-0.3,0.3-1.7-0.1-1.9
					C131.2,34.1,129.1,35.8,128.7,36.1"/>
			</defs>
			<clipPath id="SVGID_14_">
				<use xlink:href="#SVGID_13_"  style="overflow:visible;"/>
			</clipPath>
			<g class="st9">
				<g>
					<defs>
						<rect id="SVGID_15_" x="81.3" width="50.8" height="53.2"/>
					</defs>
					<clipPath id="SVGID_16_">
						<use xlink:href="#SVGID_15_"  style="overflow:visible;"/>
					</clipPath>
					<g class="st10">
						
							<image style="overflow:visible;enable-background:new    ;" width="115" height="117" xlink:href="D4345859.jpg"  transform="matrix(0.4697 0 0 -0.4697 79.8611 54.4739)">
						</image>
					</g>
				</g>
			</g>
		</g>
	</g>
</g>
</svg>
